<svg width="166" height="65" viewBox="0 0 166 65" fill="none" xmlns="http://www.w3.org/2000/svg">
<path d="M157.337 0C161.763 0.00011994 165.35 3.58773 165.35 8.01324V56.9868C165.35 61.4121 161.763 64.9999 157.337 65H8.01324C3.58774 65 0.000144429 61.4122 0 56.9868V8.01324C0 3.58765 3.58765 3.54455e-08 8.01324 0H157.337ZM27.6355 24.2676C26.467 24.2677 25.4235 24.4711 24.5053 24.878C23.5873 25.2849 22.8646 25.851 22.3377 26.5761C21.8161 27.3013 21.5578 28.1491 21.563 29.1194C21.5578 30.3036 21.9465 31.2453 22.729 31.9444C23.5115 32.6434 24.5785 33.1573 25.9296 33.486L27.6746 33.9242C28.2588 34.0651 28.752 34.2216 29.1536 34.3938C29.5605 34.5659 29.8684 34.7746 30.0771 35.0198C30.2909 35.265 30.3979 35.5676 30.3979 35.9275C30.3979 36.3136 30.2805 36.6553 30.0457 36.9527C29.811 37.25 29.4797 37.4822 29.0519 37.6491C28.6294 37.816 28.131 37.8995 27.5573 37.8995C26.9731 37.8995 26.4486 37.8108 25.9843 37.6335C25.5254 37.4509 25.1574 37.1822 24.881 36.8275C24.6097 36.4675 24.4558 36.0188 24.4193 35.4815H21.1404C21.1665 36.6344 21.4456 37.6022 21.9777 38.3847C22.515 39.162 23.2612 39.749 24.2158 40.1454C25.1757 40.5419 26.3027 40.7402 27.5964 40.7402C28.9005 40.7402 30.0145 40.5445 30.9378 40.1533C31.8664 39.7568 32.576 39.2011 33.0664 38.4865C33.562 37.7665 33.8124 36.9161 33.8176 35.9354C33.8124 35.2676 33.6898 34.6755 33.4498 34.159C33.2151 33.6426 32.8837 33.1938 32.456 32.813C32.0282 32.4322 31.5221 32.1113 30.9378 31.8505C30.3536 31.5897 29.7118 31.3809 29.0128 31.2245L27.5729 30.8801C27.2235 30.8019 26.8946 30.708 26.5869 30.5984C26.2792 30.4837 26.0078 30.3506 25.7731 30.1993C25.5384 30.0428 25.3531 29.8576 25.2175 29.6437C25.0871 29.4298 25.027 29.1794 25.0375 28.8925C25.0375 28.5482 25.1367 28.2403 25.3348 27.9691C25.5383 27.6978 25.8306 27.4865 26.2113 27.3352C26.5921 27.1787 27.0591 27.1005 27.612 27.1005C28.4258 27.1005 29.0702 27.2753 29.5449 27.6248C30.0197 27.9743 30.2883 28.4647 30.3509 29.0959H33.5985C33.5828 28.1412 33.3272 27.3013 32.8316 26.5761C32.336 25.851 31.6421 25.2849 30.75 24.878C29.8632 24.4712 28.8249 24.2676 27.6355 24.2676ZM36.0968 24.4868V34.8946C36.0968 36.0631 36.3733 37.0857 36.9263 37.9622C37.4792 38.8385 38.2541 39.522 39.2504 40.0124C40.2468 40.4976 41.4103 40.7402 42.7406 40.7402C44.0656 40.7402 45.2265 40.4975 46.2229 40.0124C47.2193 39.522 47.994 38.8385 48.547 37.9622C49.1052 37.0857 49.3843 36.0632 49.3843 34.8946V24.4868H45.9959V34.605C45.9959 35.2154 45.8603 35.758 45.589 36.2327C45.323 36.7074 44.9447 37.0805 44.4543 37.3518C43.9692 37.623 43.3978 37.7587 42.7406 37.7587C42.0885 37.7587 41.5171 37.623 41.0268 37.3518C40.5365 37.0805 40.1555 36.7074 39.8843 36.2327C39.6182 35.758 39.4852 35.2154 39.4852 34.605V24.4868H36.0968ZM72.7198 24.2676C71.5513 24.2677 70.5077 24.4711 69.5896 24.878C68.6715 25.2849 67.9488 25.851 67.422 26.5761C66.9003 27.3013 66.642 28.1491 66.6473 29.1194C66.642 30.3036 67.0308 31.2453 67.8132 31.9444C68.5957 32.6434 69.6628 33.1573 71.0138 33.486L72.7589 33.9242C73.3431 34.0651 73.8363 34.2216 74.2379 34.3938C74.6448 34.5659 74.9527 34.7746 75.1613 35.0198C75.3752 35.265 75.4822 35.5676 75.4822 35.9275C75.4822 36.3136 75.3648 36.6553 75.13 36.9527C74.8953 37.25 74.5639 37.4822 74.1362 37.6491C73.7137 37.816 73.2153 37.8995 72.6415 37.8995C72.0573 37.8995 71.5329 37.8108 71.0686 37.6335C70.6096 37.4509 70.2417 37.1822 69.9652 36.8275C69.694 36.4675 69.5401 36.0188 69.5035 35.4815H66.2247C66.2508 36.6344 66.5299 37.6022 67.062 38.3847C67.5993 39.162 68.3455 39.749 69.3001 40.1454C70.2599 40.5419 71.387 40.7402 72.6807 40.7402C73.9848 40.7402 75.0988 40.5445 76.0221 40.1533C76.9507 39.7568 77.6603 39.2011 78.1506 38.4865C78.6462 37.7665 78.8967 36.9161 78.9019 35.9354C78.8967 35.2676 78.7741 34.6755 78.5341 34.159C78.2993 33.6426 77.968 33.1938 77.5403 32.813C77.1125 32.4322 76.6064 32.1113 76.0221 31.8505C75.4379 31.5897 74.7961 31.3809 74.0971 31.2245L72.6572 30.8801C72.3077 30.8019 71.9789 30.708 71.6712 30.5984C71.3635 30.4837 71.092 30.3506 70.8573 30.1993C70.6227 30.0428 70.4373 29.8576 70.3017 29.6437C70.1714 29.4298 70.1113 29.1794 70.1217 28.8925C70.1217 28.5482 70.2209 28.2403 70.4191 27.9691C70.6225 27.6978 70.9148 27.4865 71.2956 27.3352C71.6763 27.1787 72.1434 27.1005 72.6963 27.1005C73.5101 27.1005 74.1545 27.2753 74.6292 27.6248C75.1039 27.9743 75.3726 28.4647 75.4352 29.0959H78.6828C78.6671 28.1412 78.4115 27.3013 77.9159 26.5761C77.4203 25.851 76.7264 25.2849 75.8343 24.878C74.9475 24.4712 73.9092 24.2676 72.7198 24.2676ZM88.3648 24.2676C86.9563 24.2677 85.6884 24.5911 84.5616 25.238C83.4348 25.8797 82.5426 26.8136 81.8853 28.0395C81.228 29.2655 80.8993 30.7524 80.8993 32.5C80.8993 34.2424 81.2228 35.7267 81.8697 36.9527C82.5218 38.1786 83.4088 39.1151 84.5303 39.762C85.6571 40.4089 86.9354 40.7323 88.3648 40.7324C89.3924 40.7324 90.3134 40.5784 91.1272 40.2707C91.9462 39.9577 92.6505 39.535 93.24 39.0029C93.8347 38.4656 94.3069 37.8578 94.6564 37.1796C95.0112 36.4962 95.2329 35.7867 95.3216 35.0511L91.8941 35.0354C91.8158 35.4632 91.6749 35.8441 91.4715 36.178C91.2732 36.5118 91.0228 36.7962 90.7202 37.0309C90.4177 37.2604 90.0707 37.4353 89.6795 37.5552C89.2935 37.6752 88.8734 37.7352 88.4196 37.7352C87.611 37.7352 86.8988 37.5369 86.2832 37.1405C85.6677 36.744 85.1876 36.157 84.8433 35.3798C84.5043 34.6024 84.3347 33.6425 84.3347 32.5C84.3347 31.3888 84.5043 30.4445 84.8433 29.6672C85.1824 28.8847 85.6599 28.2899 86.2754 27.883C86.8909 27.4709 87.6136 27.2648 88.443 27.2648C88.902 27.2648 89.3274 27.33 89.7186 27.4604C90.115 27.5908 90.4646 27.7787 90.7672 28.0239C91.0697 28.269 91.3176 28.5665 91.5106 28.916C91.7036 29.2603 91.8315 29.6542 91.8941 30.0976H95.3216C95.212 29.169 94.9616 28.3447 94.5704 27.6248C94.1843 26.9049 93.6834 26.297 93.0679 25.8014C92.4523 25.3007 91.7453 24.9197 90.9472 24.6589C90.1543 24.3981 89.2933 24.2676 88.3648 24.2676ZM52.1722 24.4868V40.5132H59.0194C60.2192 40.5132 61.2288 40.3202 62.0479 39.9342C62.8669 39.5481 63.4851 39.0238 63.9025 38.3612C64.3251 37.6935 64.5363 36.9344 64.5363 36.084C64.5363 35.2963 64.3694 34.6181 64.0355 34.0494C63.7016 33.4756 63.266 33.0295 62.7287 32.7113C62.1966 32.3931 61.6252 32.2209 61.0149 32.1948V32.0383C61.573 31.9131 62.0688 31.7017 62.5017 31.4044C62.9399 31.1019 63.2843 30.7158 63.5347 30.2463C63.7851 29.7715 63.9103 29.2211 63.9103 28.5951C63.9103 27.7917 63.7121 27.0822 63.3156 26.4666C62.9191 25.8458 62.3269 25.3606 61.5392 25.0111C60.7515 24.6616 59.7679 24.4868 58.589 24.4868H52.1722ZM97.7514 24.4868V40.5132H101.14V34.832H103.614L106.649 40.5132H110.389L106.987 34.2842C107.036 34.2629 107.086 34.2441 107.134 34.2216C108.005 33.8147 108.67 33.2303 109.13 32.4687C109.589 31.7018 109.818 30.7862 109.818 29.722C109.818 28.6629 109.591 27.7421 109.137 26.9596C108.689 26.1719 108.034 25.564 107.173 25.1363C106.318 24.7033 105.285 24.4868 104.074 24.4868H97.7514ZM112.213 24.4868V40.5132H115.601V24.4868H112.213ZM118.389 24.4868V40.5132H125.236C126.436 40.5132 127.446 40.3202 128.265 39.9342C129.084 39.5481 129.702 39.0238 130.119 38.3612C130.542 37.6935 130.753 36.9344 130.753 36.084C130.753 35.2963 130.586 34.6181 130.252 34.0494C129.918 33.4756 129.483 33.0295 128.946 32.7113C128.413 32.3931 127.842 32.2209 127.232 32.1948V32.0383C127.79 31.9131 128.286 31.7017 128.719 31.4044C129.157 31.1019 129.501 30.7158 129.752 30.2463C130.002 29.7715 130.127 29.2211 130.127 28.5951C130.127 27.7917 129.929 27.0822 129.532 26.4666C129.136 25.8458 128.544 25.3606 127.756 25.0111C126.968 24.6616 125.985 24.4868 124.806 24.4868H118.389ZM132.958 24.4868V40.5132H143.788V37.7196H136.346V33.8929H143.202V31.0992H136.346V27.2804H143.757V24.4868H132.958ZM58.4012 33.486C58.9437 33.486 59.4107 33.5826 59.802 33.7755C60.1984 33.9686 60.5036 34.2347 60.7175 34.5737C60.9314 34.9128 61.0384 35.3041 61.0384 35.7476C61.0384 36.3527 60.8219 36.8379 60.3889 37.2031C59.9558 37.563 59.2671 37.743 58.3229 37.743H55.5606V33.486H58.4012ZM124.618 33.486C125.161 33.486 125.628 33.5826 126.019 33.7755C126.415 33.9686 126.72 34.2347 126.934 34.5737C127.148 34.9128 127.255 35.3041 127.255 35.7476C127.255 36.3527 127.039 36.8379 126.606 37.2031C126.173 37.563 125.484 37.743 124.54 37.743H121.777V33.486H124.618ZM103.425 27.257C104.077 27.257 104.617 27.3535 105.045 27.5465C105.478 27.7343 105.799 28.0109 106.007 28.376C106.221 28.7412 106.328 29.1898 106.328 29.722C106.328 30.2489 106.221 30.6897 106.007 31.0445C105.799 31.3992 105.48 31.6653 105.053 31.8427C104.625 32.02 104.087 32.1087 103.44 32.1087H101.14V27.257H103.425ZM58.1351 27.2257C58.8863 27.2257 59.4655 27.4031 59.8724 27.7578C60.2845 28.1125 60.4906 28.5795 60.4906 29.1585C60.4906 29.5811 60.3836 29.9437 60.1698 30.2463C59.9611 30.5488 59.6741 30.7836 59.309 30.9506C58.949 31.1122 58.5368 31.1932 58.0725 31.1932H55.5606V27.2257H58.1351ZM124.352 27.2257C125.103 27.2257 125.682 27.4031 126.089 27.7578C126.501 28.1125 126.707 28.5795 126.707 29.1585C126.707 29.5811 126.6 29.9437 126.387 30.2463C126.178 30.5488 125.891 30.7836 125.526 30.9506C125.166 31.1122 124.754 31.1932 124.289 31.1932H121.777V27.2257H124.352Z" fill="white"/>
</svg>
